<?xml version="1.0" encoding="UTF-8" standalone="no"?>
<!-- Created with Inkscape (http://www.inkscape.org/) -->

<svg
   width="43.333305mm"
   height="33.75mm"
   viewBox="0 0 43.333306 33.750001"
   version="1.1"
   id="svg1"
   xmlns="http://www.w3.org/2000/svg"
   xmlns:svg="http://www.w3.org/2000/svg">
  <defs
     id="defs1" />
  <g
     id="layer1"
     transform="translate(-94.249997,-9.5833324)">
    <path
       d="m 111.125,10.583333 a 15.874999,15.875001 0 0 0 -15.875,15.875 15.874999,15.875001 0 0 0 15.875,15.875 A 15.874999,15.875001 0 0 0 126.0507,31.865755 15.874999,15.875001 0 0 0 127,26.458333 15.874999,15.875001 0 0 0 126.0507,21.050911 15.874999,15.875001 0 0 0 111.125,10.583333 Z"
       style="fill:#eba4a4;stroke:#118125;stroke-width:2;stroke-linecap:round;stroke-linejoin:round;paint-order:fill markers stroke"
       id="path3" />
    <path
       d="m 126.0507,21.050911 a 15.874999,15.875001 0 0 1 0.9493,5.407422 15.874999,15.875001 0 0 1 -0.9493,5.407422 h 10.64845 V 21.050911 Z"
       style="fill:#eba4a4;stroke:#118125;stroke-width:1.7683;stroke-linecap:round;stroke-linejoin:round;paint-order:fill markers stroke"
       id="path4" />
  </g>
</svg>
